<svg width="23" height="23" viewBox="0 0 23 23" fill="none" xmlns="http://www.w3.org/2000/svg">
<path d="M2.13288 4.10888L2.1328 4.10626L2.07734 2.11924C2.06152 1.55244 2.50623 1.08618 3.06359 1.0736L3.06639 1.07353L20.4615 0.583533C20.4616 0.583533 20.4616 0.58353 20.4616 0.58353C21.0284 0.567769 21.4946 1.01245 21.5072 1.56978L21.5072 1.57245L21.9929 18.9723C22.0087 19.5391 21.564 20.0054 21.0066 20.0179L21.004 20.018L19.0169 20.0735C18.4486 20.0893 17.9749 19.6318 17.9704 19.0602C17.9704 19.0599 17.9704 19.0596 17.9704 19.0593L17.9316 8.52343L17.927 7.27374L17.0683 8.18172L4.56538 21.4027C4.17652 21.8138 3.53527 21.8317 3.12408 21.4429L1.65203 20.0508C1.24083 19.6619 1.22294 19.0207 1.6118 18.6095L14.1147 5.38853L14.9734 4.48055L13.7254 4.54566L3.20221 5.09467L3.20124 5.09472C2.62745 5.12578 2.14582 4.68005 2.13288 4.10888Z" fill="white" stroke="black"/>
</svg>
