<svg width="89" height="89" viewBox="0 0 89 89" fill="none" xmlns="http://www.w3.org/2000/svg">
<path d="M29.2031 47.9766V68.1406C29.2031 68.5094 29.3496 68.8632 29.6104 69.1239C29.8712 69.3847 30.2249 69.5312 30.5938 69.5312H58.4062C58.7751 69.5312 59.1288 69.3847 59.3896 69.1239C59.6504 68.8632 59.7969 68.5094 59.7969 68.1406V47.9766C59.7939 45.5802 58.8407 43.2827 57.1461 41.5882C55.4516 39.8937 53.1542 38.9404 50.7578 38.9375H38.2422C35.8458 38.9404 33.5484 39.8937 31.8539 41.5882C30.1593 43.2827 29.2061 45.5802 29.2031 47.9766ZM31.9844 47.9766C31.9862 46.3175 32.6461 44.7268 33.8193 43.5537C34.9924 42.3805 36.5831 41.7206 38.2422 41.7188H42.4933L39.0251 50.965C38.9433 51.1837 38.9178 51.4195 38.9511 51.6506C38.9844 51.8818 39.0754 52.1008 39.2156 52.2875L43.3875 57.85C43.517 58.0227 43.685 58.1629 43.8781 58.2594C44.0712 58.356 44.2841 58.4062 44.5 58.4062C44.7159 58.4062 44.9288 58.356 45.1219 58.2594C45.315 58.1629 45.483 58.0227 45.6125 57.85L49.7844 52.2875C49.9246 52.1008 50.0156 51.8818 50.0489 51.6506C50.0822 51.4195 50.0567 51.1837 49.9749 50.965L46.5067 41.7188H50.7578C52.4169 41.7206 54.0076 42.3805 55.1807 43.5537C56.3539 44.7268 57.0138 46.3175 57.0156 47.9766V66.75H31.9844V47.9766ZM44.5 44.2886L47.1019 51.2278L44.5 54.6975L41.8981 51.2278L44.5 44.2886Z" fill="url(#paint0_linear_112_977)"/>
<path d="M54.3734 25.9185C54.2934 25.6716 54.1458 25.4521 53.9475 25.2848C53.7492 25.1174 53.508 25.0089 53.2512 24.9715L48.2088 24.2386L45.9546 19.6704C45.8267 19.4533 45.6444 19.2733 45.4256 19.1482C45.2068 19.0232 44.9592 18.9574 44.7072 18.9574C44.4552 18.9574 44.2076 19.0232 43.9888 19.1482C43.77 19.2733 43.5877 19.4533 43.4598 19.6704L41.2014 24.2386L36.1562 24.9715C35.8994 25.0088 35.6581 25.1172 35.4597 25.2845C35.2613 25.4518 35.1136 25.6713 35.0334 25.9182C34.9533 26.165 34.9438 26.4294 35.0061 26.6813C35.0684 26.9333 35.1999 27.1628 35.3858 27.3439L39.0334 30.8997L38.1726 35.9213C38.129 36.1768 38.1577 36.4395 38.2554 36.6796C38.3532 36.9197 38.5161 37.1277 38.7258 37.2801C38.9355 37.4326 39.1836 37.5234 39.4422 37.5422C39.7007 37.5611 39.9594 37.5073 40.189 37.387L44.6988 35.016L49.2086 37.387C49.4383 37.5077 49.6972 37.5618 49.9559 37.5431C50.2147 37.5244 50.4631 37.4337 50.6731 37.2812C50.883 37.1287 51.0461 36.9206 51.1439 36.6802C51.2416 36.4399 51.2703 36.177 51.2264 35.9213L50.3642 30.8997L54.0132 27.3439C54.2005 27.1637 54.3334 26.9346 54.3971 26.6827C54.4608 26.4307 54.4526 26.166 54.3734 25.9185ZM47.9084 29.4187C47.7469 29.576 47.626 29.7702 47.5563 29.9846C47.4865 30.199 47.4699 30.4272 47.5079 30.6494L48.0169 33.6142L45.3538 32.2138C45.1544 32.1091 44.9325 32.0544 44.7072 32.0544C44.4819 32.0544 44.26 32.1091 44.0605 32.2138L41.3975 33.6142L41.9065 30.6494C41.9445 30.4272 41.9279 30.199 41.8581 29.9846C41.7883 29.7702 41.6675 29.576 41.506 29.4187L39.3547 27.3188L42.332 26.8864C42.5551 26.854 42.767 26.7678 42.9495 26.6353C43.1319 26.5028 43.2793 26.3279 43.3791 26.1257L44.71 23.4279L46.0408 26.1257C46.1406 26.3279 46.2881 26.5028 46.4705 26.6353C46.6529 26.7678 46.8648 26.854 47.0879 26.8864L50.0625 27.3188L47.9084 29.4187Z" fill="url(#paint1_linear_112_977)"/>
<path d="M10.3782 66.0074C5.5752 58.3826 3.46364 49.3691 4.38034 40.4043C5.29703 31.4396 9.18917 23.0399 15.436 16.5451C21.6829 10.0502 29.9247 5.83406 38.847 4.56917C47.7692 3.30428 56.8581 5.06344 64.6641 9.5661L66.0547 7.15893C57.7105 2.34515 47.9947 0.464252 38.4569 1.81623C28.9191 3.16822 20.1088 7.6752 13.4311 14.6183C6.75351 21.5614 2.59327 30.5407 1.61399 40.124C0.634715 49.7072 2.8928 59.3424 8.02808 67.4926L10.3782 66.0074Z" fill="url(#paint2_linear_112_977)"/>
<path d="M77.7359 21.6478C83.0037 29.2983 85.4691 38.5326 84.7155 47.7907C83.9619 57.0487 80.0356 65.7628 73.5999 72.4606C67.1641 79.1583 58.6136 83.4292 49.393 84.5515C40.1724 85.6738 30.8471 83.5788 22.9926 78.6203L21.506 80.9719C29.9021 86.2713 39.8702 88.5101 49.7261 87.31C59.582 86.1099 68.7215 81.5446 75.6006 74.3852C82.4798 67.2259 86.6768 57.9115 87.4826 48.0155C88.2885 38.1196 85.6537 28.2488 80.0235 20.0709L77.7359 21.6478Z" fill="url(#paint3_linear_112_977)"/>
<path d="M72.1971 18.003C72.2071 18.0253 72.2233 18.0442 72.2438 18.0574C72.2642 18.0706 72.2881 18.0777 72.3125 18.0777C72.3369 18.0777 72.3608 18.0706 72.3812 18.0574C72.4017 18.0442 72.4179 18.0253 72.4279 18.003C72.737 17.0759 73.2576 16.2335 73.9487 15.5424C74.6397 14.8514 75.4822 14.3307 76.4093 14.0217C76.4315 14.0117 76.4504 13.9955 76.4636 13.975C76.4769 13.9545 76.4839 13.9306 76.4839 13.9062C76.4839 13.8819 76.4769 13.858 76.4636 13.8375C76.4504 13.817 76.4315 13.8008 76.4093 13.7908C75.4822 13.4818 74.6397 12.9611 73.9487 12.2701C73.2576 11.579 72.737 10.7366 72.4279 9.80947C72.4179 9.78722 72.4017 9.76834 72.3812 9.7551C72.3608 9.74185 72.3369 9.7348 72.3125 9.7348C72.2881 9.7348 72.2642 9.74185 72.2438 9.7551C72.2233 9.76834 72.2071 9.78722 72.1971 9.80947C71.888 10.7366 71.3673 11.579 70.6763 12.2701C69.9853 12.9611 69.1428 13.4818 68.2157 13.7908C68.1935 13.8008 68.1746 13.817 68.1613 13.8375C68.1481 13.858 68.1411 13.8819 68.1411 13.9062C68.1411 13.9306 68.1481 13.9545 68.1613 13.975C68.1746 13.9955 68.1935 14.0117 68.2157 14.0217C69.1428 14.3307 69.9853 14.8514 70.6763 15.5424C71.3673 16.2335 71.888 17.0759 72.1971 18.003Z" fill="url(#paint4_linear_112_977)"/>
<path d="M15.4123 77.7999C15.7214 76.8728 16.242 76.0304 16.9331 75.3393C17.6241 74.6483 18.4665 74.1276 19.3937 73.8185C19.4159 73.8085 19.4348 73.7923 19.448 73.7719C19.4613 73.7514 19.4683 73.7275 19.4683 73.7031C19.4683 73.6787 19.4613 73.6549 19.448 73.6344C19.4348 73.6139 19.4159 73.5977 19.3937 73.5877C18.4665 73.2786 17.6241 72.758 16.9331 72.0669C16.242 71.3759 15.7214 70.5335 15.4123 69.6063C15.4023 69.5841 15.3861 69.5652 15.3656 69.552C15.3451 69.5387 15.3213 69.5317 15.2969 69.5317C15.2725 69.5317 15.2486 69.5387 15.2281 69.552C15.2077 69.5652 15.1914 69.5841 15.1814 69.6063C14.8724 70.5335 14.3517 71.3759 13.6607 72.0669C12.9696 72.758 12.1272 73.2786 11.2001 73.5877C11.1778 73.5977 11.159 73.6139 11.1457 73.6344C11.1325 73.6549 11.1254 73.6787 11.1254 73.7031C11.1254 73.7275 11.1325 73.7514 11.1457 73.7719C11.159 73.7923 11.1778 73.8085 11.2001 73.8185C12.1272 74.1276 12.9696 74.6483 13.6607 75.3393C14.3517 76.0304 14.8724 76.8728 15.1814 77.7999C15.1914 77.8221 15.2077 77.841 15.2281 77.8543C15.2486 77.8675 15.2725 77.8746 15.2969 77.8746C15.3213 77.8746 15.3451 77.8675 15.3656 77.8543C15.3861 77.841 15.4023 77.8221 15.4123 77.7999Z" fill="url(#paint5_linear_112_977)"/>
<defs>
<linearGradient id="paint0_linear_112_977" x1="44.5" y1="38.9375" x2="44.5" y2="69.5312" gradientUnits="userSpaceOnUse">
<stop stop-color="white"/>
<stop offset="1" stop-color="#B4E300"/>
</linearGradient>
<linearGradient id="paint1_linear_112_977" x1="44.7025" y1="18.9574" x2="44.7025" y2="37.5467" gradientUnits="userSpaceOnUse">
<stop stop-color="white"/>
<stop offset="1" stop-color="#B4E300"/>
</linearGradient>
<linearGradient id="paint2_linear_112_977" x1="33.7226" y1="1.3894" x2="33.7226" y2="67.4926" gradientUnits="userSpaceOnUse">
<stop stop-color="white"/>
<stop offset="1" stop-color="#B4E300"/>
</linearGradient>
<linearGradient id="paint3_linear_112_977" x1="54.5655" y1="20.0709" x2="54.5655" y2="87.6261" gradientUnits="userSpaceOnUse">
<stop stop-color="white"/>
<stop offset="1" stop-color="#B4E300"/>
</linearGradient>
<linearGradient id="paint4_linear_112_977" x1="72.3125" y1="9.7348" x2="72.3125" y2="18.0777" gradientUnits="userSpaceOnUse">
<stop stop-color="white"/>
<stop offset="1" stop-color="#B4E300"/>
</linearGradient>
<linearGradient id="paint5_linear_112_977" x1="15.2969" y1="69.5317" x2="15.2969" y2="77.8746" gradientUnits="userSpaceOnUse">
<stop stop-color="white"/>
<stop offset="1" stop-color="#B4E300"/>
</linearGradient>
</defs>
</svg>
