<svg width="149" height="63" viewBox="0 0 149 63" fill="none" xmlns="http://www.w3.org/2000/svg">
<rect x="1" y="10" width="147" height="52" stroke="white" stroke-width="2"/>
<path d="M48.65 47.85C42.65 50.0167 35.9833 51.1 28.65 51.1C21.35 51.1 14.6833 50.0167 8.65 47.85V22.9C14.6833 20.7333 21.35 19.65 28.65 19.65C35.9833 19.65 42.65 20.7333 48.65 22.9V25.8C42.85 23.6 36.1833 22.5 28.65 22.5C22.5167 22.5 16.8167 23.2833 11.55 24.85V45.9C16.8167 47.4667 22.5167 48.25 28.65 48.25C34.8167 48.25 40.5333 47.4667 45.8 45.9V36.8H20.1V33.95H48.65V47.85ZM139.684 51.1H136.834V24.55C133.301 23.9167 129.651 23.4333 125.884 23.1C122.118 22.7667 118.151 22.5833 113.984 22.55V51.1H111.134V22.55C106.968 22.5833 103.001 22.7667 99.2344 23.1C95.4677 23.4333 91.8177 23.9167 88.2844 24.55V51.1H85.3844V22.4C93.151 20.6667 101.734 19.75 111.134 19.65H113.984C118.451 19.65 122.801 19.8833 127.034 20.35C131.301 20.7833 135.518 21.4667 139.684 22.4V51.1Z" fill="white"/>
<path d="M87.0172 33.55C81.5172 35.5167 75.3339 36.5833 68.4672 36.75V51.05H65.6172V36.75C58.7839 36.5833 52.5839 35.5167 47.0172 33.55V19.65H49.9172V31.6C55.0505 33.1333 60.7505 33.9 67.0172 33.9C73.3172 33.9 79.0339 33.1333 84.1672 31.6V19.65H87.0172V33.55Z" fill="#B4E300"/>
</svg>
