<?xml version="1.0" encoding="utf-8"?>
<!-- Generator: Adobe Illustrator 16.0.0, SVG Export Plug-In . SVG Version: 6.00 Build 0)  -->
<!DOCTYPE svg PUBLIC "-//W3C//DTD SVG 1.1//EN" "http://www.w3.org/Graphics/SVG/1.1/DTD/svg11.dtd">
<svg version="1.1" id="Layer_1" xmlns="http://www.w3.org/2000/svg" xmlns:xlink="http://www.w3.org/1999/xlink" x="0px" y="0px"
	 width="104.5px" height="97px" viewBox="17.5 11 104.5 97" enable-background="new 17.5 11 104.5 97" xml:space="preserve">
<linearGradient id="SVGID_1_" gradientUnits="userSpaceOnUse" x1="-610.6025" y1="640.1123" x2="-610.6025" y2="633.0566" gradientTransform="matrix(1 0 0 -1 694 726)">
	<stop  offset="0" style="stop-color:#FFFFFF"/>
	<stop  offset="1" style="stop-color:#B4E300"/>
</linearGradient>
<path fill="url(#SVGID_1_)" d="M85.911,86.279c-0.787-0.621-1.933-0.488-2.558,0.289l-2.761,3.445
	c-0.626,0.779-0.495,1.918,0.292,2.537c0.334,0.264,0.734,0.393,1.132,0.393c0.535,0,1.067-0.234,1.427-0.682l2.76-3.445
	C86.828,88.036,86.699,86.898,85.911,86.279z"/>
<linearGradient id="SVGID_2_" gradientUnits="userSpaceOnUse" x1="-600.6162" y1="654.415" x2="-600.6162" y2="643.6523" gradientTransform="matrix(1 0 0 -1 694 726)">
	<stop  offset="0" style="stop-color:#FFFFFF"/>
	<stop  offset="1" style="stop-color:#B4E300"/>
</linearGradient>
<path fill="url(#SVGID_2_)" d="M97.387,71.977c-0.785-0.62-1.934-0.491-2.559,0.289l-5.736,7.151
	c-0.627,0.78-0.496,1.917,0.291,2.538c0.334,0.265,0.734,0.393,1.133,0.393c0.535,0,1.066-0.233,1.426-0.682l5.737-7.151
	C98.303,73.734,98.173,72.598,97.387,71.977z"/>
<linearGradient id="SVGID_3_" gradientUnits="userSpaceOnUse" x1="-590.6284" y1="665.0127" x2="-590.6284" y2="657.9551" gradientTransform="matrix(1 0 0 -1 694 726)">
	<stop  offset="0" style="stop-color:#FFFFFF"/>
	<stop  offset="1" style="stop-color:#B4E300"/>
</linearGradient>
<path fill="url(#SVGID_3_)" d="M105.886,61.381c-0.784-0.622-1.932-0.491-2.558,0.289l-2.762,3.443
	c-0.627,0.781-0.496,1.918,0.291,2.539c0.334,0.265,0.733,0.393,1.132,0.393c0.536,0,1.067-0.234,1.427-0.682l2.764-3.445
	C106.803,63.139,106.673,62.002,105.886,61.381z"/>
<linearGradient id="SVGID_4_" gradientUnits="userSpaceOnUse" x1="-587.9819" y1="675.9531" x2="-587.9819" y2="657.917" gradientTransform="matrix(1 0 0 -1 694 726)">
	<stop  offset="0" style="stop-color:#FFFFFF"/>
	<stop  offset="1" style="stop-color:#B4E300"/>
</linearGradient>
<path fill="url(#SVGID_4_)" d="M113.891,50.381c-0.492-0.347-1.125-0.428-1.688-0.221l-13.636,5.011
	c-0.942,0.347-1.424,1.386-1.074,2.321c0.349,0.934,1.395,1.412,2.341,1.067l11.137-4.093l-0.205,11.779
	c-0.017,0.998,0.784,1.818,1.791,1.837c0.012,0,0.022,0,0.031,0c0.991,0,1.803-0.788,1.82-1.774l0.25-14.422
	C114.668,51.289,114.381,50.725,113.891,50.381z"/>
<linearGradient id="SVGID_5_" gradientUnits="userSpaceOnUse" x1="-654.2153" y1="649.0703" x2="-654.2153" y2="627.5" gradientTransform="matrix(1 0 0 -1 694 726)">
	<stop  offset="0" style="stop-color:#FFFFFF"/>
	<stop  offset="1" style="stop-color:#B4E300"/>
</linearGradient>
<path fill="url(#SVGID_5_)" d="M47.965,95.5c-1.765,0.105-3.532-0.158-5.19-0.772c-1.658-0.614-3.169-1.567-4.439-2.798
	c-1.753-1.773-3.128-3.884-4.041-6.205c-0.913-2.32-1.345-4.803-1.269-7.295c0-0.397-0.158-0.779-0.439-1.061
	s-0.663-0.439-1.061-0.439s-0.779,0.158-1.061,0.439s-0.439,0.663-0.439,1.061c-0.066,2.889,0.454,5.76,1.529,8.441
	s2.683,5.117,4.727,7.159c2.933,2.852,6.858,4.454,10.95,4.47h0.9c0.197-0.011,0.39-0.061,0.568-0.146
	c0.178-0.086,0.337-0.205,0.469-0.353c0.131-0.146,0.233-0.318,0.298-0.504c0.065-0.187,0.093-0.384,0.083-0.58
	c-0.011-0.197-0.06-0.391-0.146-0.568s-0.205-0.337-0.352-0.469s-0.318-0.232-0.504-0.299C48.359,95.518,48.162,95.489,47.965,95.5z
	"/>
<linearGradient id="SVGID_6_" gradientUnits="userSpaceOnUse" x1="-627.0073" y1="708.5576" x2="-627.0073" y2="621.5" gradientTransform="matrix(1 0 0 -1 694 726)">
	<stop  offset="0" style="stop-color:#FFFFFF"/>
	<stop  offset="1" style="stop-color:#B4E300"/>
</linearGradient>
<path fill="url(#SVGID_6_)" d="M94.39,52.42c-2.919-0.578-5.939-0.382-8.76,0.57c0.104-0.51,0.21-1.095,0.285-1.755
	c0.782-2.545,2.358-4.774,4.499-6.359c2.141-1.584,4.732-2.441,7.396-2.446c0.397,0,0.779-0.158,1.061-0.439
	s0.439-0.663,0.439-1.061c0-0.398-0.158-0.78-0.439-1.061s-0.663-0.439-1.061-0.439c-2.341,0.001-4.649,0.535-6.752,1.562
	c-2.103,1.026-3.943,2.519-5.384,4.363c-0.136-0.595-0.306-1.18-0.51-1.755c-1.509-3.551-4.095-6.537-7.396-8.535
	c-0.191-0.109-0.404-0.175-0.623-0.192c-0.22-0.018-0.44,0.013-0.646,0.091c-0.206,0.077-0.393,0.199-0.547,0.356
	c-0.154,0.158-0.271,0.347-0.344,0.555c-1.186,3.667-1.186,7.614,0,11.28c0.731,1.878,1.816,3.6,3.195,5.07
	c-1.799-0.22-3.621-0.154-5.4,0.195c-3.632,0.756-6.951,2.591-9.524,5.265c-0.368-0.887-0.532-1.846-0.479-2.805
	c0.045-0.774,0.045-1.551,0-2.325c-0.283-3.092-1.445-6.039-3.348-8.491c-1.903-2.454-4.468-4.311-7.393-5.354
	c0.262-0.984,0.447-1.987,0.555-3c0.887-2.914,2.686-5.467,5.133-7.281c2.446-1.814,5.411-2.796,8.457-2.799
	c0.398,0,0.779-0.158,1.061-0.439c0.281-0.281,0.439-0.663,0.439-1.061c0-0.397-0.158-0.779-0.439-1.061s-0.662-0.439-1.061-0.439
	c-2.682-0.016-5.33,0.597-7.732,1.79s-4.491,2.933-6.098,5.08c-0.159-0.806-0.379-1.598-0.66-2.37
	c-1.673-3.96-4.563-7.285-8.25-9.495c-0.19-0.106-0.4-0.17-0.617-0.188c-0.217-0.017-0.436,0.013-0.639,0.089
	c-0.204,0.075-0.39,0.194-0.543,0.349c-0.153,0.154-0.271,0.34-0.346,0.545c-1.334,4.089-1.334,8.496,0,12.585
	c1.043,2.625,2.675,4.975,4.77,6.87c-3.618,0.542-6.952,2.276-9.471,4.929c-2.519,2.652-4.08,6.07-4.434,9.711
	c-0.045,0.77-0.045,1.541,0,2.31c0.045,0.913-0.096,1.826-0.416,2.683c-0.32,0.856-0.812,1.638-1.445,2.297
	c-4.817,5-7.482,11.688-7.425,18.63c-0.064,3.699,0.62,7.373,2.012,10.803c1.392,3.428,3.463,6.539,6.088,9.146
	c2.193,2.078,4.789,3.682,7.627,4.713c2.838,1.033,5.858,1.471,8.873,1.287h1.17c3.222,0.004,6.405-0.701,9.324-2.064
	c2.918-1.364,5.502-3.353,7.567-5.825c1.542,1.964,3.338,3.714,5.34,5.205c2.245,1.711,4.965,2.685,7.785,2.79
	c1.606,0,3.188-0.396,4.604-1.155c1.411,0.761,2.988,1.157,4.591,1.155c2.836-0.095,5.572-1.07,7.83-2.79
	c6.629-4.665,12.6-14.865,13.904-23.7C112,65.98,104.905,54.505,94.39,52.42z M77.89,38.92c1.942,1.511,3.456,3.501,4.396,5.775
	c0.677,1.97,0.883,4.072,0.6,6.135c-0.09,0.345-0.18,0.675-0.255,1.02c-1.901-1.489-3.38-3.449-4.29-5.685
	c-0.775-2.357-0.91-4.878-0.391-7.305L77.89,38.92z M44.695,30.025c-0.919-2.762-1.074-5.722-0.45-8.565
	c2.324,1.75,4.137,4.092,5.25,6.78c0.771,2.25,1.007,4.647,0.689,7.005c-0.135,0.48-0.255,0.975-0.345,1.5
	C47.558,35.002,45.782,32.683,44.695,30.025z M48.13,101.5h-0.15c-2.619,0.167-5.245-0.213-7.708-1.117
	c-2.463-0.904-4.712-2.312-6.602-4.133c-2.336-2.329-4.177-5.107-5.409-8.168c-1.232-3.061-1.831-6.339-1.761-9.637
	c-0.053-6.14,2.288-12.058,6.525-16.5c0.92-0.954,1.635-2.086,2.099-3.328c0.464-1.241,0.669-2.564,0.601-3.888
	c-0.044-0.644-0.044-1.291,0-1.935c0.291-3.13,1.685-6.055,3.932-8.253c2.248-2.198,5.203-3.526,8.338-3.747
	c0.908,0.04,1.808,0.18,2.685,0.42c2.59,0.719,4.899,2.209,6.622,4.272s2.777,4.601,3.023,7.278c0.046,0.644,0.046,1.291,0,1.935
	c-0.104,1.906,0.372,3.799,1.365,5.43c-3.653,5.184-5.159,11.581-4.2,17.851c1.037,5.822,3.347,11.344,6.765,16.17
	c-1.894,2.437-4.35,4.379-7.158,5.658C54.289,101.089,51.211,101.669,48.13,101.5z M107.26,77.5
	c-1.185,7.995-6.75,17.52-12.675,21.689c-1.034,0.854-2.236,1.483-3.527,1.848c-1.291,0.363-2.644,0.456-3.973,0.268
	c-3.435-1.35-3-1.35-6.479,0c-1.329,0.188-2.682,0.096-3.973-0.269s-2.492-0.993-3.527-1.847C67.18,95.02,61.615,85.495,60.43,77.5
	c-1.5-10.5,4.5-20.43,13.5-22.2c3.145-0.616,6.404-0.157,9.256,1.305c0.437,0.179,0.928,0.179,1.364,0
	c2.847-1.461,6.101-1.92,9.24-1.305C102.775,57.13,108.82,67.09,107.26,77.5z"/>
<linearGradient id="SVGID_7_" gradientUnits="userSpaceOnUse" x1="-624.3882" y1="668.8984" x2="-624.3882" y2="646.5801" gradientTransform="matrix(1 0 0 -1 694 726)">
	<stop  offset="0" style="stop-color:#FFFFFF"/>
	<stop  offset="1" style="stop-color:#B4E300"/>
</linearGradient>
<path fill="url(#SVGID_7_)" d="M75.34,57.13c-8.641,1.71-14.475,11.115-13.005,21c0.051,0.36,0.231,0.69,0.507,0.928
	c0.276,0.237,0.629,0.366,0.993,0.362H64c0.195-0.029,0.383-0.097,0.551-0.198c0.17-0.103,0.316-0.236,0.434-0.396
	c0.117-0.158,0.201-0.339,0.249-0.53c0.048-0.192,0.056-0.391,0.026-0.586c-1.23-8.295,3.525-16.185,10.62-17.58
	c0.196-0.038,0.384-0.115,0.552-0.226s0.311-0.253,0.424-0.42c0.111-0.167,0.189-0.354,0.229-0.55
	c0.04-0.196,0.041-0.399,0.003-0.596c-0.039-0.197-0.115-0.384-0.227-0.552c-0.111-0.167-0.254-0.311-0.42-0.423
	c-0.166-0.112-0.354-0.19-0.551-0.23c-0.196-0.04-0.398-0.041-0.596-0.002H75.34z"/>
</svg>
