<?xml version="1.0" encoding="utf-8"?>
<!-- Generator: Adobe Illustrator 16.0.0, SVG Export Plug-In . SVG Version: 6.00 Build 0)  -->
<!DOCTYPE svg PUBLIC "-//W3C//DTD SVG 1.1//EN" "http://www.w3.org/Graphics/SVG/1.1/DTD/svg11.dtd">
<svg version="1.1" id="Layer_1" xmlns="http://www.w3.org/2000/svg" xmlns:xlink="http://www.w3.org/1999/xlink" x="0px" y="0px"
	 width="133px" height="75.333px" viewBox="0 27.833 133 75.333" enable-background="new 0 27.833 133 75.333" xml:space="preserve"
	>
<linearGradient id="SVGID_1_" gradientUnits="userSpaceOnUse" x1="-646.2139" y1="688.9365" x2="-646.2139" y2="637.3643" gradientTransform="matrix(1 0 0 -1 694 737)">
	<stop  offset="0" style="stop-color:#FFFFFF"/>
	<stop  offset="1" style="stop-color:#B4E300"/>
</linearGradient>
<path fill="url(#SVGID_1_)" d="M88.859,79.688c-3.814-3.093-9.239-2.955-12.892,0.062L51.8,60.667
	c0.302-1.145,0.408-2.344,0.285-3.558c-0.273-2.674-1.578-5.083-3.676-6.783c-4.33-3.508-10.73-2.865-14.265,1.433
	c-3.175,3.86-2.966,9.37,0.246,12.997L19.411,81.69c-2.08-1.637-4.674-2.403-7.313-2.128c-2.695,0.27-5.122,1.565-6.834,3.647
	c-3.535,4.299-2.887,10.649,1.443,14.157c1.828,1.48,4.064,2.269,6.392,2.269c0.346,0,0.692-0.017,1.041-0.053
	c2.694-0.271,5.121-1.565,6.833-3.648c1.713-2.082,2.505-4.701,2.233-7.375c-0.139-1.366-0.552-2.662-1.199-3.831l15.559-17.591
	c1.403,0.679,2.91,1.042,4.423,1.042c2.943,0,5.862-1.262,7.863-3.694c0.054-0.065,0.098-0.135,0.15-0.202l23.465,18.529
	c-2.19,4.144-1.222,9.395,2.569,12.467c1.88,1.521,4.146,2.262,6.402,2.262c2.942,0,5.861-1.262,7.863-3.695
	c1.712-2.082,2.505-4.7,2.232-7.375C92.264,83.797,90.956,81.389,88.859,79.688z M17.897,93.444
	c-1.042,1.268-2.519,2.056-4.158,2.22c-1.633,0.169-3.244-0.314-4.522-1.348c-2.635-2.135-3.028-5.997-0.878-8.615
	c2.15-2.615,6.045-3.005,8.679-0.871c0.254,0.207,0.474,0.441,0.689,0.68c0.11,0.213,0.258,0.411,0.451,0.579
	c0.594,0.845,0.988,1.815,1.097,2.868C19.422,90.584,18.94,92.177,17.897,93.444z M46.776,61.994
	c-1.042,1.266-2.519,2.054-4.157,2.22c-1.64,0.164-3.245-0.314-4.522-1.348c-2.635-2.134-3.029-5.999-0.879-8.613
	c2.15-2.617,6.045-3.007,8.679-0.872c1.277,1.033,2.071,2.499,2.237,4.126C48.301,59.133,47.818,60.727,46.776,61.994z
	 M87.227,91.354c-2.148,2.614-6.042,3.008-8.679,0.872c-2.635-2.135-3.028-5.998-0.878-8.615c1.217-1.479,2.993-2.246,4.783-2.246
	c1.371,0,2.752,0.449,3.895,1.376C88.982,84.875,89.377,88.738,87.227,91.354z"/>
<linearGradient id="SVGID_2_" gradientUnits="userSpaceOnUse" x1="-598.7222" y1="666.2129" x2="-598.7222" y2="658.5176" gradientTransform="matrix(1 0 0 -1 694 737)">
	<stop  offset="0" style="stop-color:#FFFFFF"/>
	<stop  offset="1" style="stop-color:#B4E300"/>
</linearGradient>
<path fill="url(#SVGID_2_)" d="M98.018,71.215c-0.857-0.678-2.106-0.533-2.788,0.314l-3.01,3.758
	c-0.683,0.852-0.54,2.093,0.317,2.768c0.365,0.289,0.801,0.428,1.235,0.428c0.583,0,1.163-0.254,1.555-0.743l3.01-3.758
	C99.018,73.131,98.877,71.89,98.018,71.215z"/>
<linearGradient id="SVGID_3_" gradientUnits="userSpaceOnUse" x1="-587.8354" y1="681.8174" x2="-587.8354" y2="670.0752" gradientTransform="matrix(1 0 0 -1 694 737)">
	<stop  offset="0" style="stop-color:#FFFFFF"/>
	<stop  offset="1" style="stop-color:#B4E300"/>
</linearGradient>
<path fill="url(#SVGID_3_)" d="M110.527,55.611c-0.854-0.676-2.106-0.536-2.788,0.315l-6.255,7.802
	c-0.683,0.852-0.539,2.091,0.318,2.769c0.364,0.289,0.801,0.428,1.234,0.428c0.584,0,1.164-0.255,1.555-0.744l6.256-7.802
	C111.527,57.528,111.385,56.289,110.527,55.611z"/>
<linearGradient id="SVGID_4_" gradientUnits="userSpaceOnUse" x1="-576.9478" y1="693.3779" x2="-576.9478" y2="685.6797" gradientTransform="matrix(1 0 0 -1 694 737)">
	<stop  offset="0" style="stop-color:#FFFFFF"/>
	<stop  offset="1" style="stop-color:#B4E300"/>
</linearGradient>
<path fill="url(#SVGID_4_)" d="M119.794,44.051c-0.854-0.678-2.106-0.535-2.788,0.315l-3.012,3.758
	c-0.684,0.852-0.54,2.091,0.316,2.769c0.364,0.289,0.801,0.428,1.235,0.428c0.584,0,1.163-0.255,1.556-0.744l3.012-3.758
	C120.793,45.969,120.652,44.729,119.794,44.051z"/>
<linearGradient id="SVGID_5_" gradientUnits="userSpaceOnUse" x1="-574.0615" y1="705.3125" x2="-574.0615" y2="685.6367" gradientTransform="matrix(1 0 0 -1 694 737)">
	<stop  offset="0" style="stop-color:#FFFFFF"/>
	<stop  offset="1" style="stop-color:#B4E300"/>
</linearGradient>
<path fill="url(#SVGID_5_)" d="M128.52,32.052c-0.537-0.378-1.226-0.466-1.838-0.24l-14.867,5.466
	c-1.026,0.378-1.551,1.512-1.17,2.532c0.379,1.019,1.521,1.541,2.551,1.164l12.143-4.464l-0.224,12.849
	c-0.02,1.089,0.854,1.984,1.952,2.004c0.012,0,0.023,0,0.033,0c1.08,0,1.965-0.86,1.984-1.936l0.273-15.732
	C129.367,33.042,129.055,32.427,128.52,32.052z"/>
</svg>
