<svg width="90" height="90" viewBox="0 0 90 90" fill="none" xmlns="http://www.w3.org/2000/svg">
<path fill-rule="evenodd" clip-rule="evenodd" d="M45 33.5742C38.8477 33.5742 33.75 28.4766 33.75 22.3242C33.75 15.9961 38.8477 11.0742 45 11.0742C51.1523 11.0742 56.25 15.9961 56.25 22.3242C56.25 28.4766 51.1523 33.5742 45 33.5742ZM45 13.5352C40.0781 13.5352 36.2109 17.4023 36.2109 22.3242C36.2109 27.0703 40.0781 31.1133 45 31.1133C49.9219 31.1133 53.7891 27.0703 53.7891 22.3242C53.7891 17.4023 49.9219 13.5352 45 13.5352Z" fill="url(#paint0_linear_112_956)"/>
<path fill-rule="evenodd" clip-rule="evenodd" d="M45 90C37.0898 90 29.707 88.7695 23.9062 86.4844C17.9297 84.0234 14.7656 80.5078 14.7656 76.8164C14.7656 74.8828 15.6445 72.9492 17.4023 71.3672C17.9297 70.8398 18.8086 70.8398 19.1602 71.3672C19.6875 71.8945 19.6875 72.5977 19.1602 73.125C17.9297 74.3555 17.2266 75.5859 17.2266 76.8164C17.2266 79.4531 20.0391 82.0898 24.9609 84.1992C30.2344 86.3086 37.4414 87.5391 45 87.5391C52.5586 87.5391 59.7656 86.3086 65.0391 84.1992C69.9609 82.0898 72.7734 79.4531 72.7734 76.8164C72.7734 75.5859 72.2461 74.3555 70.8398 73.125C70.3125 72.5977 70.3125 71.8945 70.8398 71.3672C71.1914 70.8398 72.0703 70.8398 72.5977 71.3672C74.3555 72.9492 75.2344 74.8828 75.2344 76.8164C75.2344 80.5078 72.0703 84.0234 66.0938 86.4844C60.293 88.7695 52.9102 90 45 90Z" fill="url(#paint1_linear_112_956)"/>
<path fill-rule="evenodd" clip-rule="evenodd" d="M17.4024 73.4766C15.6445 73.4766 14.0625 72.7734 13.0078 71.3672C11.0742 68.7305 11.4258 65.2148 13.8867 63.2812C15.4688 62.2266 16.875 61.3477 18.1055 60.4688C21.4453 58.3594 23.2031 57.1289 25.3125 50.9766C27.0703 46.2305 29.707 42.5391 32.8711 40.2539C36.0352 37.793 40.2539 36.5625 45 36.5625C45.7031 36.5625 46.2305 37.0898 46.2305 37.793C46.2305 38.4961 45.7031 39.0234 45 39.0234C36.3867 39.0234 30.9375 43.0664 27.7734 51.8555C25.1367 58.7109 23.0274 60.1172 19.3359 62.5781C18.2813 63.2812 17.0508 64.1602 15.4688 65.3906C14.7656 65.7422 14.4141 66.6211 14.2383 67.5C14.0625 68.2031 14.4141 69.082 14.9414 69.7852C15.4688 70.4883 16.1719 70.8398 17.0508 71.0156C17.9297 71.1914 18.6328 70.8398 19.3359 70.3125L20.7422 69.2578H20.918L32.8711 60.1172C33.2227 59.7656 33.75 59.7656 34.1016 59.9414C34.6289 60.1172 34.8047 60.4688 34.8047 60.9961V70.3125C34.8047 70.8398 34.2774 71.543 33.5742 71.543H21.9727L20.918 72.4219C19.8633 73.125 18.6328 73.4766 17.4024 73.4766ZM25.1367 69.082H32.3438V63.457L25.1367 69.082Z" fill="url(#paint2_linear_112_956)"/>
<path fill-rule="evenodd" clip-rule="evenodd" d="M72.5977 73.4766C71.3672 73.4766 70.1367 73.125 69.082 72.4219L68.0273 71.543H56.4258C55.7227 71.543 55.1953 70.8398 55.1953 70.3125V60.9961C55.1953 60.4688 55.3711 60.1172 55.8984 59.9414C56.25 59.7656 56.7773 59.7656 57.1289 60.1172L70.6641 70.3125C72.0703 71.543 74.0039 71.1914 75.0586 69.7852C76.1133 68.3789 75.9375 66.4453 74.5313 65.3906C72.9492 64.1602 71.7188 63.2812 70.6641 62.5781C66.9727 60.1172 64.8633 58.7109 62.2266 51.8555C59.0625 43.0664 53.6133 39.0234 45 39.0234C44.2969 39.0234 43.7695 38.4961 43.7695 37.793C43.7695 37.0898 44.2969 36.5625 45 36.5625C49.7461 36.5625 53.9648 37.793 57.1289 40.2539C60.293 42.5391 62.9297 46.2305 64.6875 50.9766C66.7969 57.1289 68.5547 58.3594 71.8945 60.4688C73.125 61.3477 74.5313 62.2266 76.1133 63.2812C77.168 64.3359 78.0469 65.5664 78.2227 67.1484C78.3984 68.5547 78.0469 70.1367 76.9922 71.3672C76.1133 72.4219 74.8828 73.3008 73.3008 73.4766C73.125 73.4766 72.7734 73.4766 72.5977 73.4766ZM57.6563 69.082H64.8633L57.6563 63.457V69.082Z" fill="url(#paint3_linear_112_956)"/>
<path fill-rule="evenodd" clip-rule="evenodd" d="M63.8086 53.7891C63.6328 53.7891 63.2812 53.6133 62.9297 53.4375C62.5781 52.9102 62.5781 52.0312 63.1055 51.6797C69.2578 46.4062 72.9492 38.6719 72.9492 30.4102C72.9492 14.9414 60.4688 2.46094 45 2.46094C29.5312 2.46094 17.0508 14.9414 17.0508 30.4102C17.0508 38.6719 20.7422 46.4062 26.8945 51.6797C27.4219 52.0312 27.4219 52.9102 27.0703 53.4375C26.543 53.9648 25.8398 53.9648 25.3125 53.4375C18.457 47.8125 14.5898 39.375 14.5898 30.4102C14.5898 13.7109 28.3008 0 45 0C61.6992 0 75.4102 13.7109 75.4102 30.4102C75.4102 39.375 71.543 47.8125 64.6875 53.4375C64.5117 53.7891 64.1602 53.7891 63.8086 53.7891Z" fill="url(#paint4_linear_112_956)"/>
<defs>
<linearGradient id="paint0_linear_112_956" x1="45" y1="11.0742" x2="45" y2="33.5742" gradientUnits="userSpaceOnUse">
<stop stop-color="#FCFCFC"/>
<stop offset="1" stop-color="#B4E300"/>
</linearGradient>
<linearGradient id="paint1_linear_112_956" x1="45" y1="70.9717" x2="45" y2="90" gradientUnits="userSpaceOnUse">
<stop stop-color="#FCFCFC"/>
<stop offset="1" stop-color="#B4E300"/>
</linearGradient>
<linearGradient id="paint2_linear_112_956" x1="28.9988" y1="36.5625" x2="28.9988" y2="73.4766" gradientUnits="userSpaceOnUse">
<stop stop-color="#FCFCFC"/>
<stop offset="1" stop-color="#B4E300"/>
</linearGradient>
<linearGradient id="paint3_linear_112_956" x1="61.0177" y1="36.5625" x2="61.0177" y2="73.4766" gradientUnits="userSpaceOnUse">
<stop stop-color="#FCFCFC"/>
<stop offset="1" stop-color="#B4E300"/>
</linearGradient>
<linearGradient id="paint4_linear_112_956" x1="45" y1="0" x2="45" y2="53.833" gradientUnits="userSpaceOnUse">
<stop stop-color="#FCFCFC"/>
<stop offset="1" stop-color="#B4E300"/>
</linearGradient>
</defs>
</svg>
